<mxfile host="Electron" modified="2024-05-09T00:08:25.761Z" agent="Mozilla/5.0 (Macintosh; Intel Mac OS X 10_15_7) AppleWebKit/537.36 (KHTML, like Gecko) draw.io/21.1.2 Chrome/106.0.5249.199 Electron/21.4.3 Safari/537.36" etag="6c4gxM_sUxVSl78iTAHb" version="21.1.2" type="device">
  <diagram name="Page-1" id="YwOttPMH2urm7ZbHIU1R">
    <mxGraphModel dx="1114" dy="1102" grid="1" gridSize="10" guides="1" tooltips="1" connect="1" arrows="1" fold="1" page="1" pageScale="1" pageWidth="850" pageHeight="1100" math="0" shadow="0">
      <root>
        <mxCell id="0" />
        <mxCell id="1" parent="0" />
        <mxCell id="rdqj42F7ykNO0dHMZv6U-34" style="edgeStyle=orthogonalEdgeStyle;curved=1;rounded=0;orthogonalLoop=1;jettySize=auto;html=1;exitX=1;exitY=0.5;exitDx=0;exitDy=0;entryX=0;entryY=0.5;entryDx=0;entryDy=0;" edge="1" parent="1" source="rdqj42F7ykNO0dHMZv6U-1" target="rdqj42F7ykNO0dHMZv6U-17">
          <mxGeometry relative="1" as="geometry" />
        </mxCell>
        <mxCell id="rdqj42F7ykNO0dHMZv6U-1" value="Start" style="ellipse;whiteSpace=wrap;html=1;aspect=fixed;fontFamily=Comic Sans MS;" vertex="1" parent="1">
          <mxGeometry x="20" y="320" width="40" height="40" as="geometry" />
        </mxCell>
        <mxCell id="rdqj42F7ykNO0dHMZv6U-21" style="edgeStyle=orthogonalEdgeStyle;curved=1;rounded=0;orthogonalLoop=1;jettySize=auto;html=1;exitX=0.5;exitY=0;exitDx=0;exitDy=0;entryX=0;entryY=0.5;entryDx=0;entryDy=0;" edge="1" parent="1" source="rdqj42F7ykNO0dHMZv6U-2" target="rdqj42F7ykNO0dHMZv6U-15">
          <mxGeometry relative="1" as="geometry" />
        </mxCell>
        <mxCell id="rdqj42F7ykNO0dHMZv6U-2" value="generate" style="rounded=1;whiteSpace=wrap;html=1;fontFamily=Comic Sans MS;aspect=fixed;" vertex="1" parent="1">
          <mxGeometry x="230" y="350" width="80" height="40" as="geometry" />
        </mxCell>
        <mxCell id="rdqj42F7ykNO0dHMZv6U-23" style="edgeStyle=orthogonalEdgeStyle;curved=1;rounded=0;orthogonalLoop=1;jettySize=auto;html=1;exitX=1;exitY=0.5;exitDx=0;exitDy=0;entryX=0;entryY=0.5;entryDx=0;entryDy=0;" edge="1" parent="1" source="rdqj42F7ykNO0dHMZv6U-4" target="rdqj42F7ykNO0dHMZv6U-8">
          <mxGeometry relative="1" as="geometry" />
        </mxCell>
        <mxCell id="rdqj42F7ykNO0dHMZv6U-26" value="pass" style="edgeLabel;html=1;align=center;verticalAlign=middle;resizable=0;points=[];fontSize=15;" vertex="1" connectable="0" parent="rdqj42F7ykNO0dHMZv6U-23">
          <mxGeometry x="-0.0286" y="2" relative="1" as="geometry">
            <mxPoint as="offset" />
          </mxGeometry>
        </mxCell>
        <mxCell id="rdqj42F7ykNO0dHMZv6U-31" style="edgeStyle=orthogonalEdgeStyle;curved=1;rounded=0;orthogonalLoop=1;jettySize=auto;html=1;entryX=1;entryY=0.5;entryDx=0;entryDy=0;exitX=0.5;exitY=1;exitDx=0;exitDy=0;" edge="1" parent="1" source="rdqj42F7ykNO0dHMZv6U-4" target="rdqj42F7ykNO0dHMZv6U-28">
          <mxGeometry relative="1" as="geometry" />
        </mxCell>
        <mxCell id="rdqj42F7ykNO0dHMZv6U-35" style="edgeStyle=orthogonalEdgeStyle;curved=1;rounded=0;orthogonalLoop=1;jettySize=auto;html=1;" edge="1" parent="1" source="rdqj42F7ykNO0dHMZv6U-4" target="rdqj42F7ykNO0dHMZv6U-2">
          <mxGeometry relative="1" as="geometry" />
        </mxCell>
        <mxCell id="rdqj42F7ykNO0dHMZv6U-36" value="fail" style="edgeLabel;html=1;align=center;verticalAlign=middle;resizable=0;points=[];" vertex="1" connectable="0" parent="rdqj42F7ykNO0dHMZv6U-35">
          <mxGeometry x="-0.0211" y="-6" relative="1" as="geometry">
            <mxPoint as="offset" />
          </mxGeometry>
        </mxCell>
        <mxCell id="rdqj42F7ykNO0dHMZv6U-4" value="validate status&lt;br&gt;(max attempts: 5)" style="rhombus;whiteSpace=wrap;html=1;fontFamily=Comic Sans MS;" vertex="1" parent="1">
          <mxGeometry x="470" y="350" width="150" height="100" as="geometry" />
        </mxCell>
        <mxCell id="rdqj42F7ykNO0dHMZv6U-8" value="END" style="ellipse;whiteSpace=wrap;html=1;aspect=fixed;fontFamily=Comic Sans MS;" vertex="1" parent="1">
          <mxGeometry x="690" y="360" width="40" height="40" as="geometry" />
        </mxCell>
        <mxCell id="rdqj42F7ykNO0dHMZv6U-33" style="edgeStyle=orthogonalEdgeStyle;curved=1;rounded=0;orthogonalLoop=1;jettySize=auto;html=1;exitX=1;exitY=0.5;exitDx=0;exitDy=0;entryX=0.5;entryY=0;entryDx=0;entryDy=0;" edge="1" parent="1" source="rdqj42F7ykNO0dHMZv6U-15" target="rdqj42F7ykNO0dHMZv6U-4">
          <mxGeometry relative="1" as="geometry" />
        </mxCell>
        <mxCell id="rdqj42F7ykNO0dHMZv6U-15" value="validate structure" style="rounded=1;whiteSpace=wrap;html=1;fontFamily=Comic Sans MS;aspect=fixed;" vertex="1" parent="1">
          <mxGeometry x="350" y="280" width="80" height="40" as="geometry" />
        </mxCell>
        <mxCell id="rdqj42F7ykNO0dHMZv6U-20" style="edgeStyle=orthogonalEdgeStyle;curved=1;rounded=0;orthogonalLoop=1;jettySize=auto;html=1;exitX=1;exitY=0.5;exitDx=0;exitDy=0;" edge="1" parent="1" source="rdqj42F7ykNO0dHMZv6U-17" target="rdqj42F7ykNO0dHMZv6U-2">
          <mxGeometry relative="1" as="geometry" />
        </mxCell>
        <mxCell id="rdqj42F7ykNO0dHMZv6U-17" value="prompt" style="rounded=1;whiteSpace=wrap;html=1;fontFamily=Comic Sans MS;aspect=fixed;" vertex="1" parent="1">
          <mxGeometry x="100" y="320" width="80" height="40" as="geometry" />
        </mxCell>
        <mxCell id="rdqj42F7ykNO0dHMZv6U-32" style="edgeStyle=orthogonalEdgeStyle;curved=1;rounded=0;orthogonalLoop=1;jettySize=auto;html=1;exitX=0;exitY=0.5;exitDx=0;exitDy=0;entryX=0.5;entryY=1;entryDx=0;entryDy=0;" edge="1" parent="1" source="rdqj42F7ykNO0dHMZv6U-28" target="rdqj42F7ykNO0dHMZv6U-2">
          <mxGeometry relative="1" as="geometry" />
        </mxCell>
        <mxCell id="rdqj42F7ykNO0dHMZv6U-28" value="Reflect" style="rounded=1;whiteSpace=wrap;html=1;fontFamily=Comic Sans MS;aspect=fixed;" vertex="1" parent="1">
          <mxGeometry x="360" y="480" width="80" height="40" as="geometry" />
        </mxCell>
      </root>
    </mxGraphModel>
  </diagram>
</mxfile>
